<svg width="221" height="15" viewBox="0 0 221 15" fill="none" xmlns="http://www.w3.org/2000/svg">
<path d="M6.54219 2.53906H2.46407V4.71094H3.82344C4.97448 4.71094 5.89115 5.03906 6.57344 5.69531C7.25573 6.34635 7.59688 7.21875 7.59688 8.3125C7.59688 9.40104 7.26354 10.2839 6.59688 10.9609C5.93021 11.6328 5.0474 11.9792 3.94844 12H0.159378V0.625H6.54219V2.53906ZM2.46407 6.61719V10.0938H3.85469C4.30261 10.0938 4.65417 9.92708 4.90938 9.59375C5.16979 9.25521 5.3 8.82292 5.3 8.29688C5.3 7.80208 5.1724 7.40104 4.91719 7.09375C4.66719 6.78125 4.31823 6.6224 3.87032 6.61719H2.46407ZM15.5766 7.07812H11.9984V10.0938H16.2328V12H9.70156V0.625H16.2172V2.53906H11.9984V5.22656H15.5766V7.07812ZM26.0719 8.21094C26.0146 9.50781 25.65 10.4896 24.9781 11.1562C24.3063 11.8229 23.3583 12.1562 22.1344 12.1562C20.8479 12.1562 19.8609 11.7344 19.1734 10.8906C18.4911 10.0417 18.15 8.83333 18.15 7.26562V5.35156C18.15 3.78906 18.5042 2.58594 19.2125 1.74219C19.9208 0.893229 20.9052 0.46875 22.1656 0.46875C23.4052 0.46875 24.3453 0.815104 24.9859 1.50781C25.6318 2.20052 25.999 3.19531 26.0875 4.49219H23.7828C23.762 3.6901 23.637 3.13802 23.4078 2.83594C23.1839 2.52865 22.7698 2.375 22.1656 2.375C21.551 2.375 21.1161 2.59115 20.8609 3.02344C20.6057 3.45052 20.4703 4.15625 20.4547 5.14062V7.28906C20.4547 8.41927 20.5797 9.19531 20.8297 9.61719C21.0849 10.0391 21.5198 10.25 22.1344 10.25C22.7385 10.25 23.1552 10.1042 23.3844 9.8125C23.6135 9.51562 23.7438 8.98177 23.775 8.21094H26.0719ZM36.2703 12H33.9734V2.53906H30.5984V12H28.3016V0.625H36.2703V12ZM46.9063 0.625V12H44.6016V2.53906H42.4922L42.3359 6.57031C42.2734 7.89844 42.1224 8.95312 41.8828 9.73438C41.6484 10.5104 41.3021 11.0807 40.8438 11.4453C40.3906 11.8099 39.7786 11.9948 39.0078 12H38.4453V10.0938L38.7109 10.0703C39.1901 10.013 39.5339 9.70052 39.7422 9.13281C39.9557 8.5599 40.0885 7.54948 40.1406 6.10156L40.2891 0.625H46.9063ZM55.1281 9.67188H51.9953L51.3859 12H48.9563L52.5109 0.625H54.6125L58.1906 12H55.7375L55.1281 9.67188ZM52.4953 7.75781H54.6203L53.5578 3.70312L52.4953 7.75781ZM66.4906 2.53906H63.6781V12H61.3734V2.53906H58.6078V0.625H66.4906V2.53906ZM76.5875 12H74.2984V7.13281H70.9078V12H68.6109V0.625H70.9078V5.22656H74.2984V0.625H76.5875V12ZM84.8094 9.67188H81.6766L81.0672 12H78.6375L82.1922 0.625H84.2938L87.8719 12H85.4188L84.8094 9.67188ZM82.1766 7.75781H84.3016L83.2391 3.70312L82.1766 7.75781ZM93.9844 12V7.90625H92.7812L91.1016 12H88.625L90.6406 7.07812C89.7031 6.42708 89.2344 5.44792 89.2344 4.14062C89.2344 3.01562 89.5495 2.14844 90.1797 1.53906C90.8151 0.929688 91.7135 0.625 92.875 0.625H96.2891V12H93.9844ZM91.5391 4.32031C91.5391 4.95052 91.651 5.40885 91.875 5.69531C92.099 5.97656 92.4479 6.11719 92.9219 6.11719H93.9844V2.53906H92.8438C91.974 2.53906 91.5391 3.13281 91.5391 4.32031ZM106.686 7.35938H105.686V12H103.389V0.625H105.686V5.17188H106.459L108.436 0.625H111.233L108.452 5.92188L111.545 12H108.811L106.686 7.35938ZM120.962 7.33594C120.962 8.86198 120.601 10.0469 119.877 10.8906C119.158 11.7344 118.158 12.1562 116.877 12.1562C115.601 12.1562 114.598 11.7396 113.869 10.9062C113.14 10.0677 112.77 8.89583 112.759 7.39062V5.44531C112.759 3.88281 113.121 2.66406 113.845 1.78906C114.569 0.908854 115.574 0.46875 116.861 0.46875C118.127 0.46875 119.124 0.901042 119.853 1.76562C120.582 2.625 120.952 3.83333 120.962 5.39062V7.33594ZM118.658 5.42969C118.658 4.40365 118.512 3.64062 118.22 3.14062C117.929 2.64062 117.476 2.39062 116.861 2.39062C116.252 2.39062 115.801 2.63281 115.509 3.11719C115.218 3.59635 115.067 4.32812 115.056 5.3125V7.33594C115.056 8.33073 115.205 9.0651 115.502 9.53906C115.798 10.0078 116.257 10.2422 116.877 10.2422C117.476 10.2422 117.921 10.013 118.212 9.55469C118.504 9.09115 118.653 8.375 118.658 7.40625V5.42969ZM131.388 12H129.098V7.13281H125.708V12H123.411V0.625H125.708V5.22656H129.098V0.625H131.388V12ZM141.75 8.21094C141.693 9.50781 141.328 10.4896 140.656 11.1562C139.984 11.8229 139.036 12.1562 137.812 12.1562C136.526 12.1562 135.539 11.7344 134.852 10.8906C134.169 10.0417 133.828 8.83333 133.828 7.26562V5.35156C133.828 3.78906 134.182 2.58594 134.891 1.74219C135.599 0.893229 136.583 0.46875 137.844 0.46875C139.083 0.46875 140.023 0.815104 140.664 1.50781C141.31 2.20052 141.677 3.19531 141.766 4.49219H139.461C139.44 3.6901 139.315 3.13802 139.086 2.83594C138.862 2.52865 138.448 2.375 137.844 2.375C137.229 2.375 136.794 2.59115 136.539 3.02344C136.284 3.45052 136.148 4.15625 136.133 5.14062V7.28906C136.133 8.41927 136.258 9.19531 136.508 9.61719C136.763 10.0391 137.198 10.25 137.812 10.25C138.417 10.25 138.833 10.1042 139.062 9.8125C139.292 9.51562 139.422 8.98177 139.453 8.21094H141.75ZM147.558 5.67969L149.089 0.625H151.558L148.441 9.76562C148.086 10.6719 147.704 11.2943 147.292 11.6328C146.886 11.9714 146.396 12.1484 145.823 12.1641H145.573L145.027 12.1328L144.988 10.2266C145.04 10.2474 145.209 10.2578 145.495 10.2578C145.787 10.2578 146.006 10.1927 146.152 10.0625C146.303 9.93229 146.433 9.64062 146.542 9.1875L146.652 8.77344L143.402 0.625H145.863L147.558 5.67969ZM161.131 0.625V12H158.827V2.53906H156.717L156.561 6.57031C156.498 7.89844 156.347 8.95312 156.108 9.73438C155.873 10.5104 155.527 11.0807 155.069 11.4453C154.616 11.8099 154.004 11.9948 153.233 12H152.67V10.0938L152.936 10.0703C153.415 10.013 153.759 9.70052 153.967 9.13281C154.181 8.5599 154.314 7.54948 154.366 6.10156L154.514 0.625H161.131ZM166.08 4.71094H167.439C168.59 4.71094 169.507 5.03906 170.189 5.69531C170.871 6.34635 171.213 7.21875 171.213 8.3125C171.213 9.40104 170.879 10.2839 170.213 10.9609C169.546 11.6328 168.663 11.9792 167.564 12H163.775V0.625H166.08V4.71094ZM166.08 6.61719V10.0938H167.47C167.918 10.0938 168.27 9.92708 168.525 9.59375C168.785 9.25521 168.916 8.82292 168.916 8.29688C168.916 7.80208 168.788 7.40104 168.533 7.09375C168.283 6.78125 167.934 6.6224 167.486 6.61719H166.08ZM179.981 2.53906H177.169V12H174.864V2.53906H172.098V0.625H179.981V2.53906ZM186.594 9.67188H183.461L182.852 12H180.422L183.977 0.625H186.078L189.656 12H187.203L186.594 9.67188ZM183.961 7.75781H186.086L185.023 3.70312L183.961 7.75781ZM191.441 0.625H193.738V10.0938H197.105V0.625H199.409V10.1016H200.808L200.652 14.7422H198.511V12H191.441V0.625ZM208.584 0.625H210.881V12H208.584V4.46875L205.233 12H202.928V0.625H205.233V8.16406L208.584 0.625ZM217.759 12V7.90625H216.556L214.877 12H212.4L214.416 7.07812C213.478 6.42708 213.009 5.44792 213.009 4.14062C213.009 3.01562 213.324 2.14844 213.955 1.53906C214.59 0.929688 215.489 0.625 216.65 0.625H220.064V12H217.759ZM215.314 4.32031C215.314 4.95052 215.426 5.40885 215.65 5.69531C215.874 5.97656 216.223 6.11719 216.697 6.11719H217.759V2.53906H216.619C215.749 2.53906 215.314 3.13281 215.314 4.32031Z" fill="white"/>
</svg>
