<svg width="1920" height="1493" viewBox="0 0 1920 1493" fill="none" xmlns="http://www.w3.org/2000/svg">
<path d="M543.208 779.95L543.208 1329.3L67.4572 1054.62L543.208 779.95Z" stroke="#EBEBEB"/>
<circle cx="66.7391" cy="1054.37" r="5" transform="rotate(-30 66.7391 1054.37)" fill="#F2F2F2"/>
<circle cx="542.896" cy="1329.09" r="5" transform="rotate(-30 542.896 1329.09)" fill="#F2F2F2"/>
<circle cx="543.053" cy="779.365" r="5" transform="rotate(-30 543.053 779.365)" fill="#F2F2F2"/>
<path d="M425.594 75.3811L425.594 331.777L203.549 203.579L425.594 75.3811Z" stroke="#EBEBEB"/>
<path d="M1668.56 747.777L1668.56 491.381L1890.61 619.579L1668.56 747.777Z" stroke="#EBEBEB"/>
<path d="M1312.62 610.625L836.874 885.299L836.874 335.95L1312.62 610.625Z" stroke="#EBEBEB"/>
<circle cx="836.739" cy="335.198" r="5" transform="rotate(30 836.739 335.198)" fill="#F2F2F2"/>
<circle cx="836.896" cy="884.926" r="5" transform="rotate(30 836.896 884.926)" fill="#F2F2F2"/>
<circle cx="1313.05" cy="610.198" r="5" transform="rotate(30 1313.05 610.198)" fill="#F2F2F2"/>
</svg>
